<?xml version="1.0" encoding="UTF-8"?><svg id="Layer_2" xmlns="http://www.w3.org/2000/svg" viewBox="0 0 49.19 17.956"><g id="Layer_1-2"><path d="M2.67,5.87l-.87,3.36c-.021.139-.021.281,0,.42H0c.077-.131.134-.272.17-.42L2.23,1.23c.023-.142.023-.288,0-.43h3.16c.632-.028,1.261.114,1.82.41.68.415.97,1.254.69,2-.268,1.016-1.014,1.837-2,2.2-.688.267-1.422.399-2.16.39h-1l-.07.07ZM45.62,2.12h-16.41l.17-.64h17.1l.34-1.33,1.56-.15c-.063.167-.116.337-.16.51l-.25,1h1.22l-.19.61h-1.2l-1.61,6.27c-.11.41,0,.61.4.61.258-.016.509-.084.74-.2l-.19.71c-.429.174-.887.265-1.35.27-.366.043-.732-.078-1-.33-.185-.301-.218-.671-.09-1l1.63-6.31h-.7l-.01-.02ZM2.84,5.19h.87c.412.028.826-.037,1.21-.19.324-.158.607-.387.83-.67.239-.291.406-.633.49-1,.165-.443.106-.939-.16-1.33-.326-.357-.798-.545-1.28-.51h-1l-.95,3.7h-.01ZM9.18,2.77h1.52l-.23.88c.202-.323.485-.588.82-.77.426-.172.88-.264,1.34-.27l-.27,1.06h-.23c-.994-.048-1.872.643-2.06,1.62l-1,4c-.04.116-.064.237-.07.36h-1.6c.07-.133.123-.274.16-.42l1.56-6c.04-.15.06-.305.06-.46ZM16.76,9.65l.24-.94c-.298.289-.634.534-1,.73-.501.233-1.048.349-1.6.34-.637.069-1.27-.164-1.71-.63-.284-.445-.34-.998-.15-1.49l1.15-4.47c.039-.137.059-.278.06-.42h1.59c-.069.134-.123.274-.16.42l-1.09,4.32c-.099.294-.073.615.07.89.246.292.62.445,1,.41.487.012.966-.128,1.37-.4.362-.232.628-.587.75-1l1.12-4.22c.035-.137.052-.278.05-.42h1.6c-.076.132-.133.273-.17.42l-1.56,6c-.031.138-.048.279-.05.42h-1.51v.04ZM25.01,8.65c-.262.266-.554.501-.87.7-.496.293-1.064.442-1.64.43-.745.074-1.456-.326-1.78-1-.302-.844-.302-1.766,0-2.61.229-1.016.755-1.942,1.51-2.66.634-.614,1.488-.948,2.37-.93.375-.016.748.056,1.09.21.291.151.529.389.68.68l.71-2.89c.035-.141.052-.285.05-.43h1.6c-.073.136-.13.281-.17.43l-2.23,8.65c-.039.14-.059.285-.06.43h-1.52l.26-1v-.01ZM24.74,3.34c-.412.004-.812.141-1.14.39-.714.646-1.192,1.512-1.36,2.46-.47,1.82-.14,2.73,1,2.73.584-.008,1.136-.271,1.51-.72.497-.617.839-1.344,1-2.12.47-1.81.14-2.72-1-2.74h-.01ZM34.32,9.19c-.457.199-.933.353-1.42.46-.442.085-.89.125-1.34.12-1.003.127-2.005-.247-2.68-1-.463-.751-.555-1.673-.25-2.5.245-1.082.856-2.046,1.73-2.73.786-.599,1.751-.916,2.74-.9.817-.085,1.623.241,2.15.87.437.755.531,1.661.26,2.49h-5.26c-.174.587-.238,1.2-.19,1.81.13.89.75,1.34,1.87,1.34.858-.027,1.689-.305,2.39-.8v.85-.01ZM30.46,5.36h3.63c.059-.33.079-.665.06-1-.025-.338-.179-.653-.43-.88-.24-.194-.542-.294-.85-.28-.524.003-1.027.203-1.41.56-.466.438-.811.989-1,1.6ZM37.74,2.77h1.51l-.24,1c.25-.298.544-.558.87-.77.544-.28,1.148-.421,1.76-.41.677-.079,1.348.192,1.78.72.218.388.254.852.1,1.27l-1.2,4.63c-.015.14-.015.28,0,.42h-1.6c.079-.13.137-.272.17-.42l1.11-4.41c.104-.308.052-.647-.14-.91-.275-.239-.637-.355-1-.32-.515-.026-1.023.126-1.44.43-.383.299-.654.718-.77,1.19l-1,4c-.038.137-.058.278-.06.42h-1.59c.073-.132.127-.273.16-.42l1.56-6c.039-.137.059-.278.06-.42h-.04Z" style="fill:#ed3237; fill-rule:evenodd;"/><polygon points="43.11 12.17 43.11 13.85 31.24 13.85 31.24 12.17 43.11 12.17" style="fill:#ffcc29; fill-rule:evenodd;"/><polygon points="29.75 12.17 29.75 13.85 17.89 13.85 17.89 12.17 29.75 12.17" style="fill:#f58733; fill-rule:evenodd;"/><polygon points="16.39 12.17 16.39 13.85 4.53 13.85 4.53 12.17 16.39 12.17" style="fill:#ed3338; fill-rule:evenodd;"/><path d="M8.432,16.717v-1.126c0-.026-.014-.05-.041-.072-.027-.021-.059-.033-.096-.035l-.092-.003c-.025-.002-.04-.006-.046-.012-.006-.006-.009-.019-.009-.039,0-.02.003-.034.01-.04.007-.006.021-.01.043-.01.003,0,.012,0,.026.001.076.005.154.007.232.007.038,0,.078-.002.121-.007.042-.005.066-.007.069-.007.012,0,.104.175.279.525.174.35.354.693.539,1.028.059-.095.148-.261.27-.497.121-.237.248-.496.379-.778.02-.041.043-.091.067-.152.034-.08.06-.121.08-.121.003,0,.012,0,.026.001.054.005.107.007.156.007.052,0,.105-.001.157-.004.053-.003.081-.004.083-.004.022,0,.036.003.042.009.006.006.009.02.009.041s-.003.035-.01.041c-.007.007-.021.01-.044.01l-.089.003c-.05.002-.086.017-.106.044-.021.028-.031.077-.031.146v1.342c0,.067.01.113.029.139.019.026.054.042.106.046l.094.008s.005.001.008.001c.031.002.046.017.047.047,0,.023-.003.037-.011.044-.007.006-.022.01-.045.01-.007,0-.022,0-.047-.001-.107-.006-.209-.009-.307-.009s-.2.003-.306.008c-.026.002-.042.003-.049.003-.022,0-.037-.003-.043-.009-.007-.006-.009-.021-.009-.044,0-.029.015-.045.046-.047.004,0,.008,0,.01-.001l.097-.008c.049-.003.083-.017.101-.042.019-.025.028-.073.028-.143v-1.332l-.349.743c-.044.095-.104.22-.178.376-.11.231-.178.377-.205.439l-.004.009c-.027.064-.051.096-.072.096-.017,0-.037-.027-.061-.084-.02-.047-.038-.088-.055-.121-.094-.186-.197-.389-.311-.612-.114-.223-.256-.498-.428-.828l.022,1.075c0,.012,0,.03.001.053.004.243.044.367.122.372l.093.006h.001c.031.003.046.019.046.048,0,.023-.003.038-.01.044-.007.006-.023.009-.048.009-.004,0-.014,0-.03-.001-.084-.006-.168-.009-.251-.009-.082,0-.167.003-.251.009-.017,0-.026.001-.03.001-.026,0-.042-.003-.048-.009-.007-.006-.01-.021-.01-.044,0-.029.015-.045.046-.048h.001l.073-.006c.064-.004.108-.035.132-.093.024-.058.036-.189.036-.394h0ZM11.562,17.247c.142,0,.249-.049.32-.147.072-.098.107-.245.107-.442,0-.213-.03-.365-.088-.455-.059-.09-.156-.135-.291-.135-.148,0-.257.05-.327.149-.071.099-.106.254-.106.464,0,.2.03.344.091.433.061.089.159.134.294.134ZM12.247,16.621c0,.238-.058.418-.174.539-.116.121-.289.182-.518.182-.209,0-.367-.054-.473-.162-.106-.108-.16-.268-.16-.48,0-.243.058-.424.173-.547.116-.122.288-.183.517-.183.212,0,.37.054.476.162.105.108.158.271.158.488h0ZM12.712,17.054v-.791c0-.056-.01-.096-.029-.121-.02-.025-.051-.039-.095-.041l-.085-.005h-.001c-.031-.002-.047-.016-.048-.041,0-.019.005-.032.013-.037.008-.006.025-.009.051-.009l.167-.003c.045,0,.093-.003.144-.007.051-.004.081-.007.088-.008.01,0,.018.002.022.007.004.004.007.012.007.022v.139c.065-.064.137-.111.215-.141.078-.03.168-.046.269-.046.147,0,.252.033.315.099.063.066.095.178.095.333v.65c0,.059.007.1.022.121.015.022.042.035.08.037l.103.01h.01c.029.002.043.015.043.041,0,.02-.003.033-.009.039-.005.006-.02.009-.041.009-.007,0-.023,0-.049-.003-.099-.005-.193-.008-.282-.008-.091,0-.186.003-.283.008-.024.002-.039.003-.045.003-.021,0-.035-.003-.041-.009-.006-.006-.009-.019-.009-.039,0-.026.013-.039.04-.041h.01l.102-.01c.039-.002.067-.016.083-.04.016-.023.024-.063.024-.119v-.607c0-.133-.023-.226-.069-.277-.046-.052-.124-.078-.236-.078-.099,0-.181.027-.247.08-.066.053-.1.118-.1.193v.69c0,.056.009.095.024.119.016.024.044.037.082.04l.105.01h.009c.027.002.04.015.042.041,0,.02-.003.033-.009.039-.005.006-.02.009-.041.009-.007,0-.023,0-.049-.003-.098-.005-.192-.008-.28-.008-.09,0-.187.003-.288.009-.023,0-.037.001-.043.001-.022,0-.036-.003-.041-.009-.006-.006-.009-.019-.009-.039,0-.026.014-.039.044-.041h.008l.101-.01c.039-.002.067-.016.084-.04.016-.023.025-.063.025-.119h0ZM14.534,16.65c-.002.014-.003.029-.004.044,0,.015,0,.038,0,.068,0,.165.029.287.087.365.058.078.148.117.27.117.097,0,.176-.023.239-.07.063-.047.102-.112.116-.193.001-.008.002-.019.004-.033.006-.048.043-.072.11-.072.029,0,.049.004.06.012.01.008.015.022.015.044,0,.117-.051.214-.155.292-.104.078-.238.117-.401.117-.199,0-.35-.057-.452-.17-.103-.114-.154-.279-.154-.498,0-.234.052-.409.155-.525.103-.115.261-.173.471-.173.191,0,.332.049.423.147.091.098.137.25.137.456,0,.028-.005.047-.014.058-.01.01-.035.015-.076.015h-.831ZM14.53,16.554h.659c0-.008,0-.018.001-.033.001-.015.002-.025.002-.032,0-.145-.026-.252-.077-.32-.052-.069-.131-.103-.239-.103-.116,0-.203.039-.26.118-.057.078-.086.198-.086.359v.011h0ZM16.368,17.311h-.073c-.007,0-.013-.003-.018-.008-.006-.005-.01-.014-.015-.027l-.374-.995c-.023-.06-.046-.105-.068-.135-.022-.03-.047-.046-.074-.05l-.065-.006h-.008c-.026-.002-.039-.016-.039-.042,0-.02.002-.033.008-.038.006-.006.018-.008.04-.008.006,0,.02,0,.043.001.089.006.173.009.252.009.079,0,.162-.003.25-.009.023,0,.037-.001.043-.001.021,0,.034.002.039.007.006.004.008.018.008.039,0,.026-.015.04-.044.042h-.003l-.069.003c-.025.002-.047.011-.063.027-.017.017-.025.037-.025.06,0,.008.003.022.008.043.001.003.002.006.003.008l.333.907.326-.882c.004-.01.006-.021.008-.033.002-.012.003-.025.003-.04,0-.031-.006-.053-.019-.067-.012-.014-.033-.022-.061-.023l-.067-.003c-.014,0-.023-.003-.028-.007-.004-.003-.007-.015-.007-.035,0-.022.003-.036.008-.04.005-.004.017-.006.037-.006.004,0,.013,0,.03.001.068.006.132.009.192.009.061,0,.125-.003.192-.009.014,0,.024-.001.028-.001.021,0,.034.002.039.007.006.004.008.018.008.04-.001.028-.017.043-.047.046-.03.002-.056.01-.076.022-.03.017-.058.049-.085.094-.027.045-.064.129-.113.251l-.249.619c-.141.349-.263.582-.364.698-.102.116-.221.174-.36.174-.066,0-.123-.014-.168-.043-.045-.029-.068-.063-.068-.105,0-.025.013-.051.04-.079.027-.028.053-.043.079-.043.023,0,.056.021.099.064.043.042.084.063.124.063.071,0,.142-.044.214-.131.073-.088.138-.21.197-.368h0ZM18.497,16.869c0,.15.013.247.04.291.027.044.075.065.147.065.037,0,.076-.007.116-.021.04-.014.061-.022.063-.022.007,0,.013.006.021.017.007.011.011.023.011.036,0,.018-.035.039-.103.065-.07.026-.143.039-.221.039-.112,0-.193-.028-.243-.084-.051-.056-.076-.143-.076-.264,0-.036,0-.087.003-.149.002-.063.003-.109.003-.136v-.609h-.176c-.023,0-.037-.002-.042-.007-.005-.004-.008-.016-.008-.034,0-.021.003-.034.008-.038.005-.005.023-.007.054-.007h.164v-.373c0-.015.002-.025.007-.032.004-.007.012-.012.022-.014.037-.012.078-.027.124-.046.045-.019.073-.028.082-.028.005,0,.008.005.011.012.002.008.004.02.004.038,0,.035-.001.08-.004.137-.003.056-.004.096-.004.119v.188h.272c.024,0,.039.002.044.008.006.005.008.017.008.035,0,.019-.002.031-.008.036-.006.005-.024.007-.055.007h-.261v.772h0ZM19.263,17.054v-1.559c0-.057-.009-.099-.027-.124-.018-.025-.048-.039-.09-.042l-.087-.003h-.002c-.034-.003-.051-.018-.051-.045,0-.017.002-.028.006-.033.004-.006.015-.008.032-.008h.026l.169-.003c.05-.002.101-.005.154-.009.054-.004.083-.006.088-.006.011.001.019.004.023.009.004.006.006.018.006.036,0,.006-.001.026-.004.058-.003.032-.005.062-.005.088v.745c.061-.063.131-.11.209-.141.079-.031.169-.047.272-.047.147,0,.252.033.315.099.063.066.095.178.095.333v.65c0,.059.007.1.022.121.015.022.042.035.079.037l.106.01h.008c.028.002.041.015.041.041,0,.02-.003.033-.009.039-.006.006-.02.009-.041.009-.007,0-.023,0-.049-.003-.097-.005-.191-.008-.278-.008-.091,0-.188.003-.288.009-.023,0-.038.001-.044.001-.021,0-.035-.003-.04-.009-.006-.006-.008-.019-.008-.039,0-.026.014-.039.043-.041h.01l.1-.01c.038-.002.065-.015.081-.038.016-.022.024-.063.024-.12v-.606c0-.135-.023-.227-.067-.278-.045-.05-.123-.075-.235-.075-.098,0-.18.026-.246.078-.067.053-.1.116-.1.191v.69c0,.054.008.093.025.118.017.024.045.038.084.041l.102.01h.009c.027.002.04.015.041.041,0,.021-.004.035-.009.04-.005.005-.018.008-.038.008-.007,0-.023,0-.05-.003-.099-.005-.193-.008-.282-.008-.09,0-.187.003-.287.009-.023,0-.037.001-.042.001-.022,0-.036-.003-.042-.009-.006-.006-.009-.019-.009-.039,0-.026.015-.039.045-.041h.008l.103-.01c.038-.002.065-.015.081-.039.016-.023.024-.063.024-.12h0ZM21.014,17.054v-.791c0-.055-.01-.095-.029-.121-.019-.026-.048-.04-.088-.042l-.09-.006h-.003c-.031-.002-.047-.015-.047-.041,0-.019.003-.032.008-.037.006-.006.02-.009.042-.009h.015l.168-.003c.061-.002.125-.006.193-.012.016,0,.026-.002.03-.003.012,0,.02.003.024.008.004.005.006.016.006.031v.12c.037-.056.081-.098.13-.126.05-.029.105-.043.166-.043.08,0,.143.02.187.061.045.04.068.098.068.172,0,.055-.009.093-.026.114-.017.022-.046.032-.088.032-.059,0-.093-.035-.1-.106-.001-.007-.002-.013-.003-.019-.005-.038-.018-.067-.04-.087-.022-.02-.053-.029-.092-.029-.065,0-.112.024-.143.073-.03.049-.045.127-.045.235v.625c0,.056.009.095.024.119.016.024.043.037.08.04l.121.01h.008c.029.001.043.015.043.04,0,.02-.003.033-.009.039-.006.006-.019.009-.04.009-.005,0-.02,0-.044-.001-.105-.006-.206-.009-.304-.009-.093,0-.189.003-.291.009-.023,0-.038.001-.044.001-.021,0-.035-.003-.04-.009-.006-.006-.009-.019-.009-.039,0-.025.013-.039.04-.04h.009l.104-.01c.039-.003.067-.016.083-.04.016-.024.024-.064.024-.119h0ZM22.612,17.247c.142,0,.249-.049.32-.147.072-.098.108-.245.108-.442,0-.213-.029-.365-.088-.455-.059-.09-.156-.135-.291-.135-.148,0-.257.05-.327.149-.071.099-.106.254-.106.464,0,.2.03.344.091.433.06.089.159.134.294.134h0ZM23.296,16.621c0,.238-.058.418-.174.539-.116.121-.289.182-.518.182-.209,0-.367-.054-.472-.162-.106-.108-.159-.268-.159-.48,0-.243.057-.424.173-.547.115-.122.287-.183.517-.183.212,0,.37.054.475.162.106.108.158.271.158.488h0ZM24.629,17.157c-.075.064-.152.111-.231.141-.078.03-.161.045-.25.045-.148,0-.254-.033-.318-.1-.064-.066-.096-.177-.096-.332v-.647c0-.056-.009-.097-.028-.123-.019-.027-.047-.04-.087-.043l-.09-.006h-.002c-.032-.003-.047-.017-.047-.042,0-.019.003-.031.008-.036.004-.005.018-.007.04-.007h.014l.173-.003c.032,0,.075-.003.127-.008.052-.005.089-.008.11-.008.011.001.019.004.023.011.004.006.006.018.006.035,0,.004,0,.013-.002.03-.005.096-.007.194-.007.296v.506c0,.128.024.219.072.273.047.054.127.081.239.081.11,0,.195-.028.256-.084.06-.056.091-.135.091-.236v-.636c0-.055-.01-.095-.029-.122-.019-.027-.049-.041-.089-.043l-.09-.006h-.001c-.031-.002-.047-.016-.047-.042,0-.019.003-.031.008-.036.004-.005.018-.007.041-.007h.016l.168-.003c.033,0,.075-.003.128-.008.053-.005.089-.008.109-.008.013,0,.021.003.026.011.005.007.008.019.008.035,0,.004,0,.013-.002.028-.005.097-.007.196-.007.297v.692c0,.056.009.097.027.123.018.027.046.04.085.041l.092.004c.023,0,.037.002.041.007.005.004.007.016.008.034,0,.028-.016.043-.047.045h-.014l-.165.006c-.052.002-.103.004-.155.006-.051.003-.078.004-.081.004-.011,0-.018-.002-.022-.006-.005-.004-.006-.011-.006-.021v-.138h0ZM25.604,16.42c0,.118.024.206.073.263.049.058.123.087.223.087.103,0,.18-.031.234-.092.053-.061.079-.152.079-.272,0-.116-.025-.203-.076-.262-.051-.059-.126-.088-.226-.088-.103,0-.18.03-.231.09-.05.06-.075.151-.075.274h0ZM25.58,17.272c-.037.042-.066.086-.086.132s-.029.093-.029.14c0,.107.033.186.1.239.067.052.168.078.305.078.166,0,.293-.032.38-.097.088-.064.132-.156.132-.277,0-.088-.027-.15-.08-.183-.054-.033-.165-.05-.334-.05-.052,0-.109.001-.174.004-.064.003-.136.007-.214.012h0ZM25.498,16.745c-.047-.041-.082-.087-.106-.139-.023-.051-.034-.111-.034-.177,0-.143.045-.255.136-.336.091-.081.216-.121.376-.121.055,0,.12.006.197.018.077.012.125.018.146.019h.375v.102h-.243c.039.043.068.087.086.134.019.046.028.096.028.151,0,.14-.051.253-.155.336-.104.084-.242.126-.416.126-.058,0-.112-.005-.163-.016-.051-.01-.101-.026-.15-.049-.008.02-.013.041-.017.062-.004.022-.006.044-.006.066,0,.049.016.085.047.106.031.022.084.032.157.032.003,0,.042,0,.118-.003.075-.002.15-.003.222-.003.17,0,.294.028.372.084.078.056.117.145.117.266,0,.18-.064.317-.192.411-.128.094-.315.141-.561.141-.181,0-.319-.031-.417-.093-.097-.061-.145-.15-.145-.266,0-.028.003-.059.011-.092.007-.034.018-.069.031-.106l.202-.152c-.02-.036-.035-.073-.045-.11-.009-.037-.014-.075-.014-.114,0-.047.003-.093.011-.138.007-.046.018-.092.033-.14h0ZM26.971,17.054v-1.559c0-.057-.009-.099-.028-.124-.018-.025-.048-.039-.09-.042l-.087-.003h-.001c-.034-.003-.052-.018-.052-.045,0-.017.002-.028.007-.033.004-.006.015-.008.032-.008h.026l.169-.003c.05-.002.101-.005.154-.009.054-.004.083-.006.087-.006.011.001.019.004.023.009.004.006.006.018.006.036,0,.006-.001.026-.004.058-.003.032-.004.062-.004.088v.745c.061-.063.131-.11.21-.141.079-.031.169-.047.271-.047.147,0,.252.033.315.099.064.066.095.178.095.333v.65c0,.059.007.1.022.121.015.022.042.035.08.037l.106.01h.008c.028.002.041.015.041.041,0,.02-.003.033-.009.039-.005.006-.02.009-.041.009-.007,0-.023,0-.049-.003-.097-.005-.19-.008-.279-.008-.092,0-.188.003-.288.009-.023,0-.037.001-.044.001-.021,0-.035-.003-.04-.009-.006-.006-.009-.019-.009-.039,0-.026.014-.039.043-.041h.01l.101-.01c.038-.002.065-.015.081-.038.015-.022.023-.063.023-.12v-.606c0-.135-.022-.227-.067-.278-.045-.05-.123-.075-.235-.075-.098,0-.18.026-.246.078-.066.053-.1.116-.1.191v.69c0,.054.008.093.025.118.017.024.045.038.084.041l.102.01h.009c.027.002.04.015.041.041,0,.021-.004.035-.009.04-.006.005-.018.008-.038.008-.007,0-.023,0-.05-.003-.099-.005-.193-.008-.282-.008-.09,0-.186.003-.287.009-.023,0-.037.001-.043.001-.022,0-.036-.003-.041-.009-.006-.006-.009-.019-.009-.039,0-.026.015-.039.044-.041h.008l.103-.01c.038-.002.065-.015.081-.039.015-.023.023-.063.023-.12h0Z" style="fill:#434242; fill-rule:evenodd;"/><path d="M30.014,17.311h-.156c-.007,0-.013-.003-.019-.009-.006-.006-.01-.014-.013-.024l-.279-.882c-.037-.122-.069-.201-.094-.238-.026-.037-.058-.057-.096-.062l-.055-.006s-.007,0-.012-.001c-.02-.003-.03-.017-.03-.041,0-.021.002-.034.007-.039.006-.005.018-.007.038-.007.006,0,.021,0,.043.001.088.006.172.009.25.009s.162-.003.25-.009c.022,0,.037-.001.043-.001.022,0,.036.002.042.007.006.005.008.018.008.039,0,.026-.016.04-.046.042h-.001l-.073.003c-.027.002-.048.011-.062.027-.015.016-.021.038-.021.066,0,.015.003.036.009.063.006.027.015.058.026.094l.237.768.366-1.077c.003-.011.007-.019.012-.025.005-.005.011-.008.019-.008h.164c.008,0,.014.003.021.009.006.006.011.014.015.025l.304,1.081.179-.522c.033-.096.059-.18.077-.253.018-.073.027-.125.027-.159,0-.031-.006-.053-.018-.067-.011-.014-.032-.022-.06-.023l-.079-.003c-.017,0-.028-.002-.032-.007-.004-.004-.006-.016-.006-.035,0-.022.003-.035.008-.039.005-.005.019-.007.039-.007.005,0,.016,0,.034.001.072.006.139.009.201.009.063,0,.13-.003.2-.009.016,0,.026-.001.032-.001.02,0,.033.002.038.006.006.004.008.018.008.041,0,.026-.01.04-.031.041-.02,0-.036.003-.05.007-.037.009-.069.03-.095.06-.026.031-.052.081-.078.15l-.351.973c-.006.02-.016.03-.029.03h-.165c-.008,0-.015-.003-.022-.01-.007-.006-.011-.014-.012-.023l-.305-1.056-.372,1.059c-.005.009-.01.016-.016.022-.007.006-.013.008-.02.008h0ZM31.909,15.535c0-.061.013-.106.038-.133.025-.028.066-.041.121-.041.054,0,.095.014.119.042.025.028.038.072.038.132s-.013.105-.038.134c-.025.028-.065.043-.119.043-.054,0-.094-.015-.12-.043-.026-.029-.039-.073-.039-.134h0ZM31.948,17.054v-.792c0-.056-.009-.097-.028-.122-.019-.025-.049-.038-.091-.04l-.09-.006h-.001c-.031-.002-.047-.015-.047-.041,0-.019.003-.031.008-.037.005-.005.019-.008.04-.008h.016l.169-.003c.05,0,.1-.003.153-.007.052-.004.08-.007.084-.008.013,0,.021.003.024.008.004.005.006.016.006.031v1.024c0,.056.008.095.024.119.016.024.043.037.081.04l.103.01h.01c.028.002.043.015.043.041,0,.02-.003.033-.009.039-.006.006-.02.009-.042.009-.006,0-.022,0-.048-.003-.099-.005-.193-.008-.281-.008-.092,0-.189.003-.29.009-.023,0-.038.001-.044.001-.021,0-.035-.003-.04-.009-.006-.006-.009-.019-.009-.039,0-.026.013-.039.04-.041h.009l.104-.01c.038-.002.066-.016.083-.04.017-.023.025-.063.025-.119h0ZM32.797,16.928l.02.097c.017.082.045.139.084.169.04.031.103.047.188.047.109,0,.193-.022.253-.065.06-.044.09-.104.09-.181,0-.066-.017-.115-.051-.148-.035-.033-.112-.063-.233-.09-.185-.044-.306-.092-.364-.144-.058-.052-.087-.127-.087-.224,0-.125.046-.226.138-.301.091-.076.215-.114.368-.114.089,0,.173.009.253.027.079.018.119.032.119.04l.006.3c0,.015-.003.026-.009.031-.006.006-.019.008-.04.008h-.016c-.029,0-.046-.002-.051-.004-.005-.003-.012-.015-.019-.038l-.025-.083c-.003-.009-.007-.022-.01-.038-.014-.053-.033-.088-.059-.105-.022-.016-.047-.027-.075-.035-.028-.008-.06-.012-.096-.012-.083,0-.149.021-.198.063-.048.042-.073.098-.073.169,0,.114.105.199.316.255.037.009.066.016.086.022.125.036.211.079.259.128.048.048.071.115.071.201,0,.14-.048.248-.144.324-.096.076-.234.115-.412.115-.122,0-.224-.01-.305-.03-.081-.02-.122-.043-.122-.069v-.323c.001-.014.004-.024.009-.028.005-.005.021-.007.046-.007.036,0,.058.002.065.005.007.003.013.016.018.04h0ZM34.961,17.157c-.05.063-.108.11-.175.14-.067.03-.145.046-.235.046-.197,0-.347-.058-.448-.173-.102-.115-.152-.285-.152-.511,0-.227.051-.398.154-.513.103-.115.256-.173.459-.173.093,0,.172.013.238.04.064.027.118.067.16.123v-.639c0-.057-.009-.098-.027-.124-.018-.025-.048-.039-.09-.042l-.088-.003h-.003c-.033-.003-.05-.018-.05-.045,0-.017.002-.028.006-.033.004-.006.014-.008.031-.008h.027l.168-.003c.073-.002.145-.006.216-.012.015-.002.023-.003.026-.003.012,0,.019.003.023.009s.006.017.006.034v.025c-.004.086-.006.175-.006.264v1.495c0,.057.009.098.027.124.018.026.046.039.085.04l.089.003c.023,0,.037.003.043.009.007.006.01.018.01.036,0,.02-.003.033-.009.038-.006.005-.024.007-.056.007h-.105c-.046,0-.096.002-.151.004-.054.003-.086.004-.095.004h-.037c-.017,0-.028-.002-.034-.006-.005-.004-.008-.011-.008-.022v-.13h0ZM34.97,16.658c0-.22-.029-.374-.085-.461-.056-.087-.154-.13-.292-.13-.134,0-.232.047-.294.141-.062.094-.092.244-.092.45,0,.21.03.361.09.452.06.091.158.137.296.137s.234-.044.291-.132c.058-.088.087-.24.087-.456h0ZM36.294,17.247c.142,0,.249-.049.32-.147.072-.098.107-.245.107-.442,0-.213-.03-.365-.088-.455-.059-.09-.156-.135-.291-.135-.148,0-.257.05-.327.149-.071.099-.106.254-.106.464,0,.2.03.344.091.433.06.089.158.134.294.134h0ZM36.979,16.622c0,.238-.058.418-.174.539-.117.121-.289.182-.518.182-.209,0-.367-.054-.472-.162-.107-.108-.16-.268-.16-.48,0-.243.058-.424.173-.547s.287-.183.517-.183c.212,0,.37.054.476.162.105.108.158.271.158.488h0ZM37.444,17.054v-.791c0-.057-.01-.098-.031-.124-.021-.026-.053-.04-.097-.041l-.082-.002c-.022,0-.036-.003-.042-.008-.005-.005-.008-.016-.008-.033,0-.019.003-.032.01-.037.006-.006.024-.009.055-.009l.167-.003c.029,0,.069-.003.121-.007.051-.004.088-.007.111-.008.011,0,.018.002.022.007.004.004.006.012.006.022v.139c.06-.064.127-.111.201-.141.074-.03.159-.046.254-.046.097,0,.175.018.237.053.062.035.105.087.129.158.069-.073.142-.126.219-.16.077-.034.165-.051.264-.051.14,0,.24.033.3.098.059.065.089.177.089.334v.651c0,.059.007.1.022.121.015.022.041.035.079.037l.103.01h.01c.027.002.04.015.04.041,0,.021-.002.034-.008.039-.005.006-.018.008-.038.008-.009,0-.026,0-.054-.003-.096-.005-.186-.008-.269-.008-.086,0-.174.003-.264.009-.018,0-.03.001-.034.001-.02,0-.033-.003-.038-.008-.005-.005-.008-.019-.008-.04,0-.026.011-.039.035-.041h.008l.091-.01c.033-.002.056-.016.07-.04.014-.023.021-.063.021-.119v-.607c0-.134-.021-.226-.063-.277-.042-.05-.116-.076-.222-.076-.094,0-.173.026-.235.078-.063.052-.094.116-.094.191v.69c0,.056.007.095.021.119.014.024.037.037.07.04l.091.01h.009c.024.002.036.015.036.041-.001.021-.004.035-.009.04-.006.005-.018.008-.038.008-.004,0-.016,0-.034-.001-.088-.006-.174-.009-.259-.009s-.171.003-.259.009c-.018,0-.029.001-.033.001-.021,0-.034-.003-.04-.008-.005-.005-.008-.018-.008-.039,0-.026.012-.039.036-.041h.007l.089-.01c.033-.002.057-.016.071-.04.014-.024.022-.063.022-.118v-.607c0-.133-.022-.225-.065-.276-.044-.051-.118-.077-.224-.077-.094,0-.173.026-.235.078-.062.052-.094.116-.094.191v.69c0,.055.007.094.022.118.015.024.039.038.071.04l.089.01h.009c.024.002.036.015.036.041,0,.021-.003.034-.008.039-.005.006-.018.008-.039.008-.005,0-.017,0-.037-.001-.087-.006-.171-.009-.253-.009-.089,0-.184.003-.282.008-.026.002-.042.003-.049.003-.022,0-.036-.003-.041-.009-.006-.006-.009-.019-.009-.039,0-.026.014-.039.044-.041h.008l.1-.01c.039-.002.067-.016.084-.04.017-.023.025-.063.025-.119h0Z" style="fill:#434242; fill-rule:evenodd;"/><polygon points="40.639 16.47 43.214 16.47 43.214 16.614 40.639 16.614 40.639 16.47" style="fill:#434242; fill-rule:evenodd;"/><polygon points="4.599 16.47 7.174 16.47 7.174 16.614 4.599 16.614 4.599 16.47" style="fill:#434242; fill-rule:evenodd;"/></g></svg>